<?xml version="1.0" encoding="UTF-8" standalone="no"?><svg xmlns="http://www.w3.org/2000/svg" version="1.0" viewBox="1.93 151.75 370.64 72.75"><defs><clipPath id="a"><path d="M 1.929688 151.75 L 74.679688 151.75 L 74.679688 224.5 L 1.929688 224.5 Z M 1.929688 151.75"/></clipPath></defs><path fill="#3F74FF" d="M 37.730469 207.183594 C 28.363281 206.824219 20.730469 199.195312 20.375 189.828125 C 20.015625 180.304688 27.023438 172.34375 36.15625 171.195312 C 37.363281 171.042969 38.433594 171.988281 38.4375 173.207031 C 38.464844 188.4375 39.121094 189.09375 54.351562 189.121094 C 55.570312 189.125 56.515625 190.195312 56.363281 191.402344 C 55.210938 200.53125 47.25 207.542969 37.730469 207.183594 Z M 37.730469 207.183594" fill-rule="evenodd"/><g clip-path="url(#a)"><path fill="#3F74FF" d="M 38.300781 151.75 C 12.09375 151.75 1.929688 161.640625 1.929688 188.121094 C 1.929688 215.058594 11.546875 224.492188 38.300781 224.492188 C 65.183594 224.492188 74.671875 214.511719 74.671875 188.121094 C 74.671875 161.75 64.746094 151.75 38.300781 151.75 Z M 38.371094 214.066406 C 24.074219 214.066406 12.484375 202.480469 12.484375 188.183594 C 12.484375 173.886719 24.074219 162.300781 38.371094 162.300781 C 52.664062 162.300781 64.253906 173.886719 64.253906 188.183594 C 64.253906 202.480469 52.664062 214.066406 38.371094 214.066406 Z M 38.371094 214.066406" fill-rule="evenodd"/></g><g fill="#3F74FF"><g><g><path d="M 0.390625 0 L 10.242188 0 L 12.101562 -5.832031 L 25.039062 -5.832031 L 26.898438 0 L 36.75 0 L 25.578125 -34.984375 L 11.5625 -34.984375 Z M 13.914062 -12.542969 L 18.324219 -26.949219 L 18.765625 -26.949219 L 23.226562 -12.542969 Z M 13.914062 -12.542969" transform="translate(89.082 206.45)"/></g></g></g><g fill="#3F74FF"><g><g><path d="M 2.351562 0 L 10.78125 0 L 10.78125 -14.011719 C 10.78125 -16.804688 12.640625 -18.816406 15.089844 -18.816406 C 17.589844 -18.816406 19.15625 -16.757812 19.15625 -13.914062 L 19.15625 0 L 27.585938 0 L 27.585938 -15.582031 C 27.585938 -21.511719 23.960938 -25.820312 18.71875 -25.820312 C 15.433594 -25.820312 13.132812 -24.253906 11.171875 -21.070312 L 10.78125 -21.070312 L 10.78125 -25.183594 L 2.351562 -25.183594 Z M 2.351562 0" transform="translate(123.28 206.45)"/></g></g></g><g fill="#3F74FF"><g><g><path d="M 9.261719 11.464844 C 14.308594 11.464844 17.492188 8.378906 20.1875 1.027344 L 29.9375 -25.183594 L 21.3125 -25.183594 L 16.363281 -10.386719 L 15.925781 -10.386719 L 9.554688 -25.183594 L 0.441406 -25.183594 L 12.984375 0.34375 C 12.003906 2.941406 10.339844 4.800781 7.546875 4.800781 C 6.371094 4.800781 4.703125 4.507812 3.675781 4.117188 L 3.675781 10.632812 C 4.949219 11.121094 7.496094 11.464844 9.261719 11.464844 Z M 9.261719 11.464844" transform="translate(149.984 206.45)"/></g></g></g><g fill="#3F74FF"><g><g><path d="M 2.351562 0 L 10.78125 0 L 10.78125 -14.160156 C 10.78125 -16.953125 12.296875 -18.816406 14.699219 -18.816406 C 17.050781 -18.816406 18.617188 -16.953125 18.617188 -14.160156 L 18.617188 0 L 26.996094 0 L 26.996094 -14.160156 C 26.996094 -16.953125 28.613281 -18.816406 31.113281 -18.816406 C 33.660156 -18.71875 35.179688 -16.757812 35.179688 -14.160156 L 35.179688 0 L 43.609375 0 L 43.609375 -16.167969 C 43.609375 -21.949219 39.933594 -25.820312 34.640625 -25.820312 C 30.820312 -25.820312 27.976562 -23.863281 26.851562 -20.578125 L 26.410156 -20.578125 C 25.332031 -23.714844 22.292969 -25.820312 18.765625 -25.820312 C 15.433594 -25.820312 12.640625 -23.910156 11.21875 -20.972656 L 10.730469 -20.972656 L 10.730469 -25.183594 L 2.351562 -25.183594 Z M 2.351562 0" transform="translate(177.421 206.45)"/></g></g></g><g fill="#3F74FF"><g><g><path d="M 9.210938 0.636719 C 12.691406 0.636719 15.972656 -0.6875 17.441406 -3.332031 L 17.882812 -3.332031 L 17.882812 0 L 26.3125 0 L 26.3125 -16.464844 C 26.3125 -22.050781 21.460938 -25.722656 14.257812 -25.722656 C 6.957031 -25.722656 2.15625 -22.050781 2.15625 -16.511719 L 10.191406 -16.511719 C 10.191406 -18.960938 11.90625 -20.53125 14.160156 -20.53125 C 16.414062 -20.53125 17.882812 -18.960938 17.882812 -16.804688 L 17.882812 -15.53125 L 13.082031 -14.796875 C 4.851562 -13.574219 1.027344 -11.121094 1.027344 -6.320312 C 1.027344 -1.863281 4.410156 0.636719 9.210938 0.636719 Z M 12.640625 -4.359375 C 10.4375 -4.359375 9.113281 -5.488281 9.113281 -7.152344 C 9.113281 -8.867188 10.386719 -9.945312 13.523438 -10.484375 L 17.882812 -11.21875 L 17.882812 -9.503906 C 17.882812 -6.566406 15.777344 -4.359375 12.640625 -4.359375 Z M 12.640625 -4.359375" transform="translate(220.146 206.45)"/></g></g></g><g fill="#3F74FF"><g><g><path d="M 12.59375 0.539062 C 14.160156 0.539062 16.363281 0.246094 17.933594 -0.34375 L 17.933594 -6.125 C 17.148438 -5.929688 16.121094 -5.832031 15.386719 -5.832031 C 13.523438 -5.832031 12.296875 -7.152344 12.296875 -9.210938 L 12.296875 -19.207031 L 17.785156 -19.207031 L 17.785156 -25.183594 L 12.296875 -25.183594 L 12.296875 -32.925781 L 5.632812 -32.925781 L 4.214844 -25.183594 L 0.539062 -25.183594 L 0.539062 -19.207031 L 3.871094 -19.207031 L 3.871094 -8.820312 C 3.871094 -3.234375 7.351562 0.539062 12.59375 0.539062 Z M 12.59375 0.539062" transform="translate(245.574 206.45)"/></g></g></g><g fill="#3F74FF"><g><g><path d="M 15.289062 0.636719 C 21.707031 0.636719 27.046875 -2.546875 28.273438 -7.398438 L 20.921875 -8.425781 C 20.1875 -6.46875 18.226562 -5.046875 15.726562 -5.046875 C 12.496094 -5.046875 10.289062 -7.152344 9.800781 -10.339844 L 29.054688 -10.339844 C 29.105469 -10.730469 29.152344 -11.90625 29.152344 -12.496094 C 29.152344 -20.628906 23.714844 -25.820312 15.386719 -25.820312 C 7.054688 -25.820312 1.125 -20.675781 1.125 -12.640625 C 1.125 -4.558594 6.910156 0.636719 15.289062 0.636719 Z M 9.703125 -14.699219 C 10.140625 -17.980469 12.199219 -20.136719 15.238281 -20.136719 C 18.324219 -20.136719 20.578125 -17.6875 20.726562 -14.699219 Z M 9.703125 -14.699219" transform="translate(261.498 206.45)"/></g></g></g><g fill="#3F74FF"><g><g><path d="M 2.742188 0 L 11.855469 0 L 11.855469 -22.050781 L 12.296875 -22.050781 L 20.628906 0 L 27.929688 0 L 36.257812 -22.097656 L 36.699219 -22.097656 L 36.699219 0 L 45.8125 0 L 45.8125 -34.984375 L 33.21875 -34.984375 L 24.5 -11.074219 L 24.058594 -11.074219 L 15.089844 -34.984375 L 2.742188 -34.984375 Z M 2.742188 0" transform="translate(297.754 206.45)"/></g></g></g><g fill="#3F74FF"><g><g><path d="M 15.289062 0.636719 C 21.707031 0.636719 27.046875 -2.546875 28.273438 -7.398438 L 20.921875 -8.425781 C 20.1875 -6.46875 18.226562 -5.046875 15.726562 -5.046875 C 12.496094 -5.046875 10.289062 -7.152344 9.800781 -10.339844 L 29.054688 -10.339844 C 29.105469 -10.730469 29.152344 -11.90625 29.152344 -12.496094 C 29.152344 -20.628906 23.714844 -25.820312 15.386719 -25.820312 C 7.054688 -25.820312 1.125 -20.675781 1.125 -12.640625 C 1.125 -4.558594 6.910156 0.636719 15.289062 0.636719 Z M 9.703125 -14.699219 C 10.140625 -17.980469 12.199219 -20.136719 15.238281 -20.136719 C 18.324219 -20.136719 20.578125 -17.6875 20.726562 -14.699219 Z M 9.703125 -14.699219" transform="translate(343.419 206.45)"/></g></g></g></svg>